<?xml version="1.0" encoding="utf-8"?>
<!-- Generator: Adobe Illustrator 16.0.0, SVG Export Plug-In . SVG Version: 6.00 Build 0)  -->
<!DOCTYPE svg PUBLIC "-//W3C//DTD SVG 1.1//EN" "http://www.w3.org/Graphics/SVG/1.1/DTD/svg11.dtd">
<svg version="1.1" id="Layer_1" xmlns="http://www.w3.org/2000/svg" xmlns:xlink="http://www.w3.org/1999/xlink" x="0px" y="0px"
	 width="200px" height="140px" viewBox="0 0 200 140" enable-background="new 0 0 200 140" xml:space="preserve">
<g>
	<path fill="#8459A4" d="M16.708,99.528h-6.131v10.984c-0.125,0.986-0.74,1.48-1.837,1.48c-0.485,0-1.015-0.121-1.557-0.369
		c-0.675-0.313-0.975-0.695-0.907-1.133V81.515h10.072c1.946,0,3.489,0.094,4.614,0.285c2.999,0.512,5.093,1.961,6.267,4.359
		c0.627,1.248,0.928,2.629,0.928,4.135C28.157,96.45,24.335,99.528,16.708,99.528z M20.356,85.606
		c-0.633-0.176-1.857-0.271-3.67-0.271h-6.109v10.369h6.19c4.64,0,6.974-1.762,6.974-5.289c0-1.137-0.299-2.139-0.867-3.002
		C22.263,86.499,21.424,85.892,20.356,85.606z"/>
	<path fill="#8459A4" d="M53.668,110.31c-2.297,1.246-4.766,1.873-7.409,1.873c-2.808,0-5.339-0.662-7.575-1.975
		c-2.297-1.348-4.057-3.256-5.262-5.723c-1.15-2.355-1.732-4.863-1.732-7.504c0-4.76,1.209-8.57,3.606-11.416
		c2.582-3.059,6.253-4.59,10.983-4.59c2.779,0,5.289,0.641,7.508,1.914c2.287,1.314,4.044,3.184,5.245,5.596
		c1.206,2.414,1.815,5.129,1.815,8.143c0,2.906-0.586,5.535-1.735,7.879C57.871,107.075,56.049,109.001,53.668,110.31z
		 M51.613,86.138c-1.573-0.973-3.343-1.459-5.308-1.459c-3.516,0-6.145,1.227-7.903,3.682c-1.53,2.139-2.28,5.033-2.28,8.682
		c0,3.357,0.826,6.07,2.482,8.125c1.801,2.221,4.338,3.328,7.629,3.328c3.396,0,5.972-1.178,7.76-3.533
		c1.626-2.113,2.422-4.898,2.422-8.357C56.415,91.636,54.819,88.144,51.613,86.138z"/>
	<path fill="#E0048B" d="M87.106,107.839c-2.045,2.896-5.303,4.344-9.783,4.344c-5.433,0-9.189-1.607-11.311-4.816
		c-0.775-1.15-1.221-2.348-1.35-3.602c-0.056-0.449,0.225-0.803,0.805-1.068c0.462-0.201,0.939-0.307,1.468-0.307
		c1.086,0,1.674,0.34,1.78,1.025c0.311,1.826,1.589,3.17,3.852,4.031c1.541,0.594,3.057,0.887,4.555,0.887
		c3.157,0,5.33-0.824,6.533-2.471c0.539-0.734,0.826-1.555,0.826-2.447c0-1.85-1.164-3.209-3.465-4.07
		c-0.934-0.355-2.801-0.855-5.631-1.498c-2.477-0.58-4.32-1.193-5.582-1.836c-2.883-1.52-4.336-3.734-4.336-6.645
		c0-1.656,0.481-3.148,1.42-4.461c0.914-1.273,2.174-2.236,3.742-2.881c1.68-0.68,3.547-1.027,5.605-1.027
		c4.746,0,8.072,1.43,9.965,4.275c0.787,1.17,1.168,2.387,1.168,3.643c0.016,0.396-0.287,0.719-0.91,0.947
		c-0.475,0.189-0.947,0.291-1.447,0.291c-1.03,0-1.602-0.313-1.757-0.93c-0.675-2.963-2.96-4.443-6.859-4.443
		c-1.786,0-3.253,0.283-4.427,0.848c-1.559,0.738-2.346,1.908-2.346,3.496c0,1.457,0.832,2.566,2.5,3.328
		c0.688,0.334,2.225,0.754,4.576,1.281c3.222,0.723,5.447,1.367,6.693,1.928c3.49,1.592,5.247,4.064,5.247,7.43
		C88.638,104.827,88.122,106.413,87.106,107.839z"/>
	<path fill="#E0048B" d="M95.231,112.052c-1.42,0-2.137-0.449-2.137-1.355V82.89c0-0.531,0.263-0.959,0.806-1.273
		c0.445-0.246,0.967-0.371,1.534-0.371c1.314,0,1.955,0.549,1.955,1.645v27.807C97.389,111.603,96.667,112.052,95.231,112.052z"/>
	<path fill="#8459A4" d="M122.637,85.335h-7.764v25.793c0,0.676-0.74,1.01-2.199,1.01c-1.395,0-2.096-0.334-2.096-1.01V85.335
		h-7.742c-0.729,0-1.109-0.621-1.109-1.865c0-1.311,0.381-1.955,1.109-1.955h19.801c0.66,0,1.008,0.693,1.008,2.096
		C123.645,84.761,123.297,85.335,122.637,85.335z"/>
	<path fill="#8459A4" d="M130.1,112.052c-1.432,0-2.141-0.449-2.141-1.355V82.89c0-0.531,0.264-0.959,0.809-1.273
		c0.445-0.246,0.965-0.371,1.533-0.371c1.299,0,1.957,0.549,1.957,1.645v27.807C132.258,111.603,131.533,112.052,130.1,112.052z"/>
	<path fill="#8459A4" d="M161.797,82.644l-11.008,27.91c-0.375,0.986-1.146,1.479-2.277,1.479c-1.006,0-1.711-0.492-2.102-1.479
		l-11.088-27.951c-0.041-0.123-0.059-0.223-0.059-0.307c0-0.768,0.705-1.15,2.098-1.137c1.223,0.016,2.084,0.455,2.574,1.316
		l8.963,22.984l8.527-22.938c0.504-0.865,1.242-1.299,2.211-1.299c0.436,0,0.875,0.102,1.336,0.291
		c0.58,0.244,0.887,0.551,0.887,0.926C161.859,82.522,161.838,82.589,161.797,82.644z"/>
	<path fill="#8459A4" d="M186.625,110.31c-2.297,1.246-4.768,1.873-7.408,1.873c-2.811,0-5.342-0.662-7.572-1.975
		c-2.303-1.348-4.063-3.256-5.268-5.723c-1.15-2.355-1.729-4.863-1.729-7.504c0-4.76,1.209-8.57,3.604-11.416
		c2.586-3.059,6.25-4.59,10.992-4.59c2.768,0,5.281,0.641,7.502,1.914c2.285,1.314,4.035,3.184,5.24,5.596
		c1.205,2.414,1.814,5.129,1.814,8.143c0,2.906-0.58,5.535-1.73,7.879C190.826,107.075,189.006,109.001,186.625,110.31z
		 M184.566,86.138c-1.57-0.973-3.33-1.459-5.305-1.459c-3.52,0-6.145,1.227-7.902,3.682c-1.529,2.139-2.279,5.033-2.279,8.682
		c0,3.357,0.826,6.07,2.479,8.125c1.805,2.221,4.338,3.328,7.643,3.328c3.381,0,5.959-1.178,7.746-3.533
		c1.627-2.113,2.424-4.898,2.424-8.357C189.371,91.636,187.77,88.144,184.566,86.138z"/>
	<g>
		<g>
			<path fill="#929497" d="M12.274,129.308c-0.008,0.051-0.012,0.102-0.012,0.158L6.674,129.8c0.046,0.688,0.249,1.248,0.623,1.672
				c0.391,0.475,0.945,0.705,1.623,0.705c0.934,0,1.564-0.43,1.873-1.293c0.131-0.242,0.377-0.359,0.742-0.359
				c0.481,0,0.732,0.15,0.732,0.455c0,0.027-0.006,0.064-0.021,0.105c-0.218,0.752-0.622,1.32-1.248,1.719
				c-0.564,0.361-1.268,0.547-2.089,0.547c-1.191,0-2.117-0.365-2.77-1.098c-0.63-0.701-0.938-1.656-0.938-2.861
				c0-1.203,0.295-2.166,0.894-2.91c0.65-0.777,1.567-1.176,2.746-1.176c1.043,0,1.897,0.355,2.566,1.053
				c0.31,0.338,0.523,0.707,0.648,1.113c0.084,0.287,0.16,0.859,0.219,1.73C12.282,129.22,12.278,129.255,12.274,129.308z
				 M10.435,127.202c-0.415-0.482-0.933-0.732-1.583-0.732c-0.596,0-1.101,0.207-1.485,0.6c-0.381,0.375-0.587,0.869-0.641,1.469
				l4.108-0.236C10.783,127.827,10.649,127.456,10.435,127.202z"/>
			<path fill="#929497" d="M18.506,129.356c0.03-0.744-0.123-1.377-0.43-1.914c-0.307-0.535-0.721-0.844-1.219-0.943
				c-0.053,0-0.132,0-0.252,0H15.04v6.561c-0.03,0.234-0.252,0.355-0.662,0.355c-0.438,0-0.646-0.123-0.646-0.365v-7.262
				c0-0.291,0.235-0.436,0.73-0.443l1.725-0.031c0.067-0.014,0.215-0.02,0.43-0.02c1.137,0,2.007,0.445,2.596,1.328
				c0.225-0.307,0.5-0.561,0.81-0.756c0.516-0.322,0.993-0.48,1.442-0.48c0.964,0,1.733,0.428,2.307,1.281
				c0.471,0.717,0.707,1.676,0.711,2.871l-0.076-0.049l0.076-0.043v3.406c0,0.301-0.227,0.451-0.686,0.451
				c-0.486,0-0.72-0.15-0.72-0.451v-3.527c0-1.139-0.274-1.914-0.833-2.33c-0.189-0.143-0.439-0.217-0.761-0.217
				c-0.518,0-0.945,0.309-1.284,0.928c-0.176,0.309-0.26,0.729-0.26,1.258v0.037c0,0.029,0,0.057,0,0.084v3.945
				c-0.029,0.254-0.283,0.385-0.766,0.385c-0.426,0-0.639-0.129-0.643-0.379c-0.012-0.039-0.018-0.078-0.018-0.121v-3.541
				C18.508,129.37,18.506,129.364,18.506,129.356z"/>
			<path fill="#929497" d="M31.772,132.056c-0.613,0.885-1.475,1.324-2.568,1.324c-0.873,0-1.574-0.342-2.084-1.018v3.305
				c-0.029,0.24-0.256,0.357-0.686,0.357c-0.417,0-0.627-0.117-0.627-0.367v-9.877c0-0.293,0.237-0.439,0.714-0.445l2.329-0.029
				c0.066-0.01,0.209-0.012,0.416-0.012c1.082,0,1.924,0.396,2.512,1.18c0.539,0.715,0.806,1.627,0.806,2.744
				C32.583,130.345,32.315,131.294,31.772,132.056z M30.807,127.567c-0.291-0.613-0.711-0.969-1.29-1.082c-0.046,0-0.124,0-0.251,0
				h-2.023v2.791c0.012,1.072,0.082,1.727,0.221,1.951c0.411,0.652,0.945,0.973,1.631,0.973c0.699,0,1.231-0.314,1.589-0.959
				c0.313-0.518,0.465-1.16,0.465-1.912C31.148,128.642,31.034,128.06,30.807,127.567z"/>
			<path fill="#929497" d="M38.542,126.839c-0.082,0-0.156-0.027-0.213-0.08c-0.121-0.201-0.381-0.301-0.75-0.301
				c-0.687,0-1.207,0.313-1.574,0.924c-0.286,0.475-0.426,1.092-0.426,1.865c0,0.041,0,0.109,0,0.193c0,0.086,0,0.145,0,0.186v3.367
				c-0.028,0.256-0.275,0.387-0.766,0.387c-0.426,0-0.644-0.135-0.644-0.393v-6.809c0-0.125,0-0.205,0-0.234v-0.063
				c0-0.275,0.258-0.426,0.784-0.426c0.455,0,0.682,0.152,0.682,0.439v0.326c0.554-0.613,1.227-0.928,2.053-0.928
				c0.716,0,1.16,0.082,1.37,0.25c0.175,0.156,0.261,0.322,0.261,0.512c0,0.197-0.076,0.375-0.236,0.543
				C38.91,126.759,38.735,126.839,38.542,126.839z"/>
			<path fill="#929497" d="M46.852,129.308c-0.01,0.051-0.014,0.102-0.014,0.158l-5.574,0.334c0.049,0.688,0.249,1.248,0.605,1.672
				c0.411,0.475,0.947,0.705,1.641,0.705c0.934,0,1.546-0.43,1.871-1.293c0.132-0.242,0.373-0.359,0.729-0.359
				c0.498,0,0.736,0.15,0.736,0.455c0,0.027-0.008,0.064-0.02,0.105c-0.207,0.752-0.629,1.32-1.238,1.719
				c-0.58,0.361-1.268,0.547-2.088,0.547c-1.191,0-2.119-0.365-2.781-1.098c-0.627-0.701-0.944-1.656-0.944-2.861
				c0-1.203,0.307-2.166,0.901-2.91c0.66-0.777,1.576-1.176,2.752-1.176c1.043,0,1.904,0.355,2.551,1.053
				c0.326,0.338,0.54,0.707,0.666,1.113c0.086,0.287,0.156,0.859,0.21,1.73C46.857,129.22,46.857,129.255,46.852,129.308z
				 M45.008,127.202c-0.397-0.482-0.932-0.732-1.565-0.732c-0.616,0-1.104,0.207-1.504,0.6c-0.362,0.375-0.573,0.869-0.624,1.469
				l4.111-0.236C45.372,127.827,45.239,127.456,45.008,127.202z"/>
			<path fill="#929497" d="M52.928,133.032c-0.484,0.211-1.082,0.318-1.795,0.318c-1.5,0-2.507-0.502-3.033-1.51
				c-0.02-0.057-0.031-0.119-0.031-0.174c0-0.176,0.091-0.334,0.275-0.479c0.186-0.141,0.365-0.209,0.547-0.209
				c0.17,0,0.309,0.07,0.424,0.213c0.289,0.662,0.883,0.984,1.814,0.984c1.234,0,1.863-0.373,1.863-1.143
				c0-0.266-0.117-0.486-0.356-0.643c-0.172-0.104-0.616-0.25-1.333-0.424c-0.812-0.201-1.341-0.354-1.553-0.436
				c-1.059-0.404-1.597-1.066-1.597-1.986c0-0.77,0.339-1.354,0.988-1.75c0.548-0.33,1.229-0.49,2.045-0.49
				c1.293,0,2.161,0.33,2.649,0.973l0.017,0.016c0.047,0.059,0.075,0.127,0.075,0.191c0,0.188-0.115,0.336-0.331,0.459
				c-0.202,0.115-0.392,0.176-0.573,0.176c-0.174,0-0.307-0.061-0.4-0.176c-0.279-0.309-0.715-0.475-1.346-0.475
				c-1.166,0-1.744,0.318-1.744,0.932c0,0.34,0.205,0.582,0.616,0.74c0.103,0.045,0.497,0.152,1.14,0.326
				c0.865,0.236,1.383,0.381,1.535,0.438c1.08,0.391,1.611,1.055,1.611,1.992C54.436,131.88,53.941,132.587,52.928,133.032z"/>
			<path fill="#929497" d="M61.882,133.415c-0.432,0-0.653-0.121-0.679-0.355v-0.717c-0.52,0.67-1.217,1.008-2.091,1.008
				c-1.093,0-1.958-0.438-2.576-1.314c-0.535-0.762-0.796-1.703-0.796-2.832c0-1.113,0.261-2.023,0.784-2.738
				c0.602-0.779,1.446-1.172,2.526-1.172c0.209,0,0.346,0.006,0.41,0.016l2.337,0.035c0.479,0.004,0.72,0.146,0.72,0.443v7.262
				C62.518,133.292,62.306,133.415,61.882,133.415z M59.051,126.499c-0.131,0-0.217,0-0.25,0c-0.586,0.113-1.016,0.473-1.305,1.096
				c-0.213,0.479-0.316,1.057-0.316,1.727c0,0.75,0.143,1.391,0.453,1.91c0.358,0.639,0.88,0.945,1.59,0.945
				c0.686,0,1.221-0.313,1.63-0.959c0.142-0.227,0.212-0.877,0.222-1.951v-2.768H59.051z"/>
			<path fill="#929497" d="M75.257,133.351c-0.43,0-0.649-0.123-0.678-0.357v-0.65c-0.52,0.67-1.218,1.008-2.09,1.008
				c-1.095,0-1.956-0.438-2.573-1.313c-0.535-0.764-0.801-1.709-0.801-2.84c0-1.119,0.264-2.027,0.792-2.742
				c0.597-0.779,1.436-1.178,2.518-1.178c0.211,0,0.349,0,0.414,0h1.646v-2.316c0-0.289,0.225-0.434,0.688-0.434
				c0.478,0,0.72,0.145,0.72,0.438v10.021C75.893,133.226,75.682,133.351,75.257,133.351z M72.426,126.485c-0.133,0-0.213,0-0.248,0
				c-0.59,0.113-1.014,0.473-1.307,1.094c-0.211,0.484-0.318,1.057-0.318,1.732c0,0.754,0.148,1.395,0.453,1.914
				c0.361,0.639,0.884,0.951,1.594,0.951c0.683,0,1.217-0.316,1.629-0.967c0.135-0.229,0.213-0.883,0.221-1.953v-2.771H72.426z"/>
			<path fill="#929497" d="M84.02,129.308c-0.01,0.051-0.012,0.102-0.012,0.158l-5.572,0.334c0.043,0.688,0.244,1.248,0.602,1.672
				c0.414,0.475,0.947,0.705,1.639,0.705c0.934,0,1.549-0.43,1.876-1.293c0.131-0.242,0.372-0.359,0.728-0.359
				c0.496,0,0.736,0.15,0.736,0.455c0,0.027-0.008,0.064-0.021,0.105c-0.205,0.752-0.614,1.32-1.238,1.719
				c-0.583,0.361-1.267,0.547-2.088,0.547c-1.191,0-2.118-0.365-2.779-1.098c-0.621-0.701-0.947-1.656-0.947-2.861
				c0-1.203,0.312-2.166,0.901-2.91c0.661-0.777,1.577-1.176,2.757-1.176c1.041,0,1.898,0.355,2.551,1.053
				c0.322,0.338,0.541,0.707,0.665,1.113c0.084,0.287,0.153,0.859,0.206,1.73C84.026,129.22,84.026,129.255,84.02,129.308z
				 M82.179,127.202c-0.4-0.482-0.937-0.732-1.566-0.732c-0.616,0-1.106,0.207-1.504,0.6c-0.366,0.375-0.577,0.869-0.628,1.469
				l4.111-0.236C82.54,127.827,82.407,127.456,82.179,127.202z"/>
			<path fill="#929497" d="M96.935,125.708l-2.866,7.23c-0.1,0.246-0.299,0.371-0.609,0.371c-0.371,0-0.605-0.125-0.71-0.371
				l-2.852-7.195c-0.009-0.027-0.013-0.053-0.013-0.074c0-0.143,0.092-0.252,0.266-0.334c0.142-0.061,0.289-0.092,0.455-0.092
				c0.367,0,0.619,0.15,0.77,0.465l2.058,5.389l2.05-5.428c0.098-0.27,0.377-0.398,0.809-0.398c0.451,0,0.672,0.111,0.672,0.338
				C96.963,125.642,96.956,125.677,96.935,125.708z"/>
			<path fill="#929497" d="M98.708,124.128c-0.232,0-0.435-0.088-0.59-0.256c-0.16-0.166-0.237-0.373-0.237-0.609
				s0.077-0.438,0.237-0.6c0.155-0.164,0.357-0.252,0.59-0.252c0.248,0,0.447,0.088,0.611,0.252c0.162,0.162,0.244,0.363,0.244,0.6
				c0,0.244-0.082,0.447-0.244,0.611C99.155,124.04,98.956,124.128,98.708,124.128z M98.692,133.304
				c-0.428,0-0.646-0.131-0.646-0.389v-7.049c0-0.309,0.227-0.467,0.687-0.467c0.487,0,0.725,0.158,0.725,0.467v7.049
				C99.429,133.173,99.181,133.304,98.692,133.304z"/>
			<path fill="#929497" d="M107.324,133.415c-0.432,0-0.652-0.121-0.68-0.355v-0.717c-0.514,0.67-1.217,1.008-2.09,1.008
				c-1.094,0-1.955-0.438-2.563-1.314c-0.547-0.762-0.809-1.703-0.809-2.832c0-1.113,0.256-2.023,0.799-2.738
				c0.586-0.779,1.426-1.172,2.51-1.172c0.209,0,0.344,0.006,0.414,0.016l2.328,0.035c0.484,0.004,0.725,0.146,0.725,0.443v7.262
				C107.959,133.292,107.746,133.415,107.324,133.415z M104.492,126.499c-0.131,0-0.215,0-0.246,0
				c-0.594,0.113-1.016,0.473-1.293,1.096c-0.23,0.479-0.334,1.057-0.334,1.727c0,0.75,0.148,1.391,0.457,1.91
				c0.354,0.639,0.889,0.945,1.586,0.945c0.689,0,1.219-0.313,1.631-0.959c0.139-0.227,0.211-0.877,0.223-1.951v-2.768H104.492z"/>
			<path fill="#929497" d="M108.633,136.226h-1.297c-0.256-0.033-0.402-0.24-0.402-0.631c0-0.412,0.148-0.629,0.406-0.662h1.039
				c0.822,0,1.221-0.551,1.221-1.645c0-0.109-0.004-0.273-0.016-0.49c-0.008-0.229-0.02-0.389-0.02-0.502v-6.414
				c0-0.275,0.234-0.426,0.711-0.426c0.463,0,0.689,0.15,0.689,0.426v6.414c0,0.098,0,0.246,0,0.443c0,0.207,0,0.355,0,0.455
				C110.965,135.214,110.201,136.226,108.633,136.226z M110.205,124.235c-0.248,0-0.447-0.08-0.605-0.252
				c-0.16-0.166-0.24-0.363-0.24-0.609c0-0.23,0.08-0.434,0.24-0.602c0.158-0.162,0.357-0.244,0.605-0.244
				c0.232,0,0.432,0.082,0.596,0.244c0.162,0.168,0.244,0.371,0.244,0.602c0,0.246-0.082,0.443-0.244,0.609
				C110.637,124.155,110.438,124.235,110.205,124.235z"/>
			<path fill="#929497" d="M119.539,129.308c-0.008,0.051-0.012,0.102-0.012,0.158l-5.588,0.334
				c0.045,0.688,0.244,1.248,0.619,1.672c0.393,0.475,0.947,0.705,1.621,0.705c0.932,0,1.564-0.43,1.875-1.293
				c0.129-0.242,0.391-0.359,0.744-0.359c0.477,0,0.736,0.15,0.736,0.455c0,0.027-0.008,0.064-0.023,0.105
				c-0.223,0.752-0.627,1.32-1.248,1.719c-0.572,0.361-1.27,0.547-2.09,0.547c-1.191,0-2.121-0.365-2.766-1.098
				c-0.635-0.701-0.945-1.656-0.945-2.861c0-1.203,0.297-2.166,0.902-2.91c0.645-0.777,1.561-1.176,2.734-1.176
				c1.045,0,1.904,0.355,2.57,1.053c0.309,0.338,0.525,0.707,0.65,1.113c0.102,0.287,0.168,0.859,0.221,1.73
				C119.547,129.22,119.545,129.255,119.539,129.308z M117.697,127.202c-0.408-0.482-0.934-0.732-1.584-0.732
				c-0.596,0-1.104,0.207-1.482,0.6c-0.377,0.375-0.594,0.869-0.645,1.469l4.109-0.236
				C118.045,127.827,117.912,127.456,117.697,127.202z"/>
			<path fill="#929497" d="M125.619,133.032c-0.498,0.211-1.102,0.318-1.797,0.318c-1.516,0-2.525-0.502-3.031-1.51
				c-0.027-0.057-0.035-0.119-0.035-0.174c0-0.176,0.092-0.334,0.268-0.479c0.178-0.141,0.359-0.209,0.559-0.209
				c0.166,0,0.307,0.07,0.41,0.213c0.279,0.662,0.895,0.984,1.824,0.984c1.238,0,1.867-0.373,1.867-1.143
				c0-0.266-0.127-0.486-0.375-0.643c-0.168-0.104-0.598-0.25-1.313-0.424c-0.832-0.201-1.344-0.354-1.578-0.436
				c-1.057-0.404-1.576-1.066-1.576-1.986c0-0.77,0.324-1.354,0.986-1.75c0.533-0.33,1.221-0.49,2.047-0.49
				c1.281,0,2.162,0.33,2.637,0.973l0.014,0.016c0.045,0.059,0.074,0.127,0.074,0.191c0,0.188-0.111,0.336-0.332,0.459
				c-0.188,0.115-0.369,0.176-0.555,0.176c-0.184,0-0.324-0.061-0.42-0.176c-0.262-0.309-0.701-0.475-1.328-0.475
				c-1.17,0-1.758,0.318-1.758,0.932c0,0.34,0.203,0.582,0.631,0.74c0.1,0.045,0.48,0.152,1.141,0.326
				c0.863,0.236,1.367,0.381,1.518,0.438c1.078,0.391,1.629,1.055,1.629,1.992C127.125,131.88,126.619,132.587,125.619,133.032z"/>
			<path fill="#929497" d="M139.717,134.253c-0.422,1.369-1.576,2.049-3.447,2.049c-1.512,0-2.49-0.406-2.951-1.236
				c-0.041-0.051-0.064-0.111-0.064-0.184c0-0.176,0.1-0.32,0.305-0.438c0.18-0.105,0.371-0.154,0.553-0.154
				c0.174,0,0.316,0.061,0.426,0.182c0.162,0.189,0.256,0.293,0.281,0.309c0.314,0.238,0.785,0.354,1.439,0.354
				c1.201,0,1.924-0.445,2.156-1.328c0.023-0.104,0.043-0.232,0.057-0.398l-1.477,0.021c-0.076,0.008-0.221,0.014-0.432,0.014
				c-1.084,0-1.922-0.395-2.508-1.184c-0.539-0.711-0.801-1.627-0.801-2.742v-3.814c0.023-0.266,0.27-0.396,0.758-0.396
				c0.434,0,0.65,0.131,0.65,0.396v3.82c0,0.623,0.127,1.189,0.395,1.693c0.293,0.594,0.711,0.932,1.26,1.031
				c0.047-0.008,0.129-0.008,0.252,0h1.941v-0.088c0.035-0.373,0.057-0.854,0.064-1.439v-5.047c0.023-0.246,0.25-0.367,0.68-0.367
				c0.422,0,0.633,0.121,0.633,0.367v0.086c0.035,0.064,0.053,0.133,0.053,0.215v6.148
				C139.939,133.083,139.863,133.79,139.717,134.253z"/>
			<path fill="#929497" d="M149.604,126.86h-1.18v5.977c0,0.316-0.236,0.473-0.689,0.473c-0.471,0-0.725-0.156-0.725-0.473v-5.977
				h-0.465c-0.246,0-0.367-0.186-0.367-0.566c0-0.414,0.121-0.621,0.367-0.621h0.465v-2.045c0-0.322,0.234-0.482,0.695-0.486
				c0.469-0.006,0.719,0.137,0.719,0.432v2.1h1.18c0.262,0,0.393,0.197,0.393,0.588C149.996,126.665,149.865,126.86,149.604,126.86z
				"/>
			<path fill="#929497" d="M156.801,133.37l-2.316,0.029c-0.068,0.01-0.215,0.016-0.428,0.016c-1.08,0-1.922-0.393-2.508-1.178
				c-0.539-0.711-0.799-1.625-0.799-2.736v-3.805c0.02-0.264,0.268-0.391,0.754-0.391c0.438,0,0.654,0.131,0.654,0.396v3.799
				c0,0.621,0.123,1.182,0.393,1.684c0.295,0.598,0.709,0.936,1.262,1.029c0.045,0,0.129,0,0.25,0h2.141v-6.549
				c0.027-0.24,0.256-0.359,0.686-0.359c0.422,0,0.648,0.121,0.648,0.367v7.258C157.537,133.216,157.285,133.366,156.801,133.37z"/>
			<path fill="#929497" d="M163.482,126.839c-0.082,0-0.156-0.027-0.215-0.08c-0.119-0.201-0.367-0.301-0.748-0.301
				c-0.67,0-1.207,0.313-1.574,0.924c-0.273,0.475-0.424,1.092-0.424,1.865c0,0.041,0,0.109,0,0.193c0,0.086,0,0.145,0,0.186v3.367
				c-0.031,0.256-0.281,0.387-0.752,0.387c-0.443,0-0.658-0.135-0.658-0.393v-6.809c0-0.125,0-0.205,0-0.234v-0.063
				c0-0.275,0.256-0.426,0.785-0.426c0.453,0,0.688,0.152,0.688,0.439v0.326c0.547-0.613,1.236-0.928,2.051-0.928
				c0.707,0,1.174,0.082,1.369,0.25c0.17,0.156,0.258,0.322,0.258,0.512c0,0.197-0.078,0.375-0.238,0.543
				C163.867,126.759,163.678,126.839,163.482,126.839z"/>
			<path fill="#929497" d="M165.84,124.128c-0.248,0-0.447-0.088-0.605-0.256c-0.16-0.166-0.24-0.373-0.24-0.609
				s0.08-0.438,0.24-0.6c0.158-0.164,0.357-0.252,0.605-0.252c0.234,0,0.43,0.088,0.596,0.252c0.164,0.162,0.246,0.363,0.246,0.6
				c0,0.244-0.082,0.447-0.246,0.611C166.27,124.04,166.074,124.128,165.84,124.128z M165.826,133.304
				c-0.445,0-0.66-0.131-0.66-0.389v-7.049c0-0.309,0.227-0.467,0.695-0.467c0.477,0,0.713,0.158,0.713,0.467v7.049
				C166.545,133.173,166.297,133.304,165.826,133.304z"/>
			<path fill="#929497" d="M172.914,133.032c-0.484,0.211-1.086,0.318-1.783,0.318c-1.52,0-2.523-0.502-3.031-1.51
				c-0.023-0.057-0.035-0.119-0.035-0.174c0-0.176,0.092-0.334,0.268-0.479c0.18-0.141,0.354-0.209,0.553-0.209
				c0.172,0,0.311,0.07,0.412,0.213c0.283,0.662,0.895,0.984,1.826,0.984c1.238,0,1.865-0.373,1.865-1.143
				c0-0.266-0.133-0.486-0.371-0.643c-0.168-0.104-0.602-0.25-1.316-0.424c-0.828-0.201-1.34-0.354-1.574-0.436
				c-1.057-0.404-1.576-1.066-1.576-1.986c0-0.77,0.324-1.354,0.984-1.75c0.535-0.33,1.221-0.49,2.049-0.49
				c1.275,0,2.162,0.33,2.631,0.973l0.016,0.016c0.049,0.059,0.074,0.127,0.074,0.191c0,0.188-0.111,0.336-0.33,0.459
				c-0.186,0.115-0.369,0.176-0.557,0.176s-0.32-0.061-0.414-0.176c-0.264-0.309-0.717-0.475-1.328-0.475
				c-1.172,0-1.76,0.318-1.76,0.932c0,0.34,0.203,0.582,0.631,0.74c0.1,0.045,0.48,0.152,1.141,0.326
				c0.861,0.236,1.365,0.381,1.514,0.438c1.084,0.391,1.633,1.055,1.633,1.992C174.434,131.88,173.918,132.587,172.914,133.032z"/>
			<path fill="#929497" d="M180.498,129.356c0.027-0.744-0.111-1.377-0.434-1.914c-0.301-0.535-0.703-0.844-1.217-0.943
				c-0.051,0-0.137,0-0.254,0h-1.563v6.561c-0.027,0.234-0.252,0.355-0.668,0.355c-0.432,0-0.643-0.123-0.643-0.365v-7.262
				c0-0.291,0.236-0.436,0.727-0.443l1.744-0.031c0.068-0.014,0.203-0.02,0.414-0.02c1.135,0,2.006,0.445,2.609,1.328
				c0.223-0.307,0.488-0.561,0.793-0.756c0.521-0.322,0.996-0.48,1.459-0.48c0.967,0,1.719,0.428,2.293,1.281
				c0.471,0.717,0.725,1.676,0.729,2.871l-0.08-0.049l0.08-0.043v3.406c0,0.301-0.244,0.451-0.703,0.451
				c-0.477,0-0.723-0.15-0.723-0.451v-3.527c0-1.139-0.271-1.914-0.832-2.33c-0.191-0.143-0.439-0.217-0.744-0.217
				c-0.533,0-0.957,0.309-1.297,0.928c-0.178,0.309-0.264,0.729-0.264,1.258v0.037c0,0.029,0,0.057,0,0.084v3.945
				c-0.029,0.254-0.279,0.385-0.756,0.385c-0.436,0-0.646-0.129-0.656-0.379c-0.006-0.039-0.01-0.078-0.01-0.121v-3.541
				C180.5,129.37,180.498,129.364,180.498,129.356z"/>
			<path fill="#929497" d="M193.023,132.882c-0.586,0.305-1.207,0.469-1.896,0.469c-1.201,0-2.121-0.377-2.766-1.135
				c-0.592-0.705-0.885-1.67-0.885-2.887c0-1.426,0.391-2.48,1.201-3.166c0.662-0.568,1.482-0.857,2.449-0.857
				c1.182,0,2.102,0.373,2.752,1.107c0.604,0.691,0.918,1.627,0.918,2.805C194.797,131.015,194.197,132.233,193.023,132.882z
				 M192.838,127.358c-0.4-0.582-0.961-0.881-1.711-0.881c-0.771,0-1.34,0.305-1.729,0.904c-0.322,0.502-0.48,1.145-0.48,1.947
				c0,0.799,0.158,1.455,0.48,1.947c0.385,0.604,0.953,0.9,1.729,0.9c0.779,0,1.35-0.303,1.738-0.924
				c0.313-0.504,0.471-1.164,0.471-1.967C193.336,128.505,193.17,127.866,192.838,127.358z"/>
		</g>
	</g>
	<g>
		<path fill="#6851A1" d="M79.753,48.944c-7.923,0.275-14.925,4.074-19.731,9.916c5.134,5.207,12.178,8.307,19.855,8.045
			c7.922-0.281,14.932-4.072,19.728-9.916C94.475,51.782,87.429,48.677,79.753,48.944z"/>
		<path fill="#A59CCC" d="M90.959,36.509c-5.791-5.693-13.289-8.234-20.605-7.682c0.127,7.498,3.021,14.939,8.633,20.475
			c5.789,5.699,13.29,8.234,20.605,7.689C99.465,49.491,96.569,42.044,90.959,36.509z"/>
		<g>
			<path fill="#6851A1" d="M85.26,24.269c-2.189,0.074-4.02-1.465-4.08-3.445c-0.059-1.979,1.666-3.648,3.859-3.725
				c2.186-0.078,4.016,1.471,4.077,3.449C89.18,22.524,87.454,24.188,85.26,24.269z"/>
			<path fill="#AF57A0" d="M84.557,13.298c-0.919-1.248-0.844-2.924,0.17-3.758c1.01-0.832,2.572-0.496,3.485,0.754
				c0.923,1.236,0.847,2.916-0.169,3.746C87.032,14.87,85.477,14.54,84.557,13.298z"/>
			<path fill="#E35AA0" d="M94.276,4.948c0.502,1.045,0.197,2.258-0.654,2.689c-0.833,0.439-1.928-0.045-2.422-1.086
				C90.716,5.509,91.008,4.3,91.86,3.86C92.712,3.421,93.801,3.905,94.276,4.948z"/>
			<path fill="#E35AA0" d="M118.232,48.288c-7.34,0.262-13.896,3.549-18.648,8.686c5.162,5.498,12.402,8.805,20.328,8.527
				c7.342-0.252,13.912-3.543,18.652-8.68C133.4,51.317,126.16,48.013,118.232,48.288z"/>
			<path fill="#C46BA9" d="M106.947,36.958c-5.004,5.648-7.445,12.863-7.355,20.031c7.339,0.043,14.687-3.014,20.103-9.111
				c5.023-5.646,7.447-12.859,7.361-20.029C119.715,27.808,112.373,30.864,106.947,36.958z"/>
			<path fill="#A77EB7" d="M107.25,36.081c-0.271-8.334-3.873-15.725-9.406-20.789c-4.949,5.406-7.901,12.824-7.652,20.92
				c0.26,8.336,3.875,15.723,9.407,20.783C104.547,51.593,107.5,44.175,107.25,36.081z"/>
			<path fill="#E0048B" d="M99.601,56.989c7.178,0.041,14.342-2.887,19.706-8.709c-0.35-0.004-0.701-0.006-1.074,0.008
				c-7.332,0.262-13.891,3.545-18.64,8.676c0,0.006,0,0.012,0,0.016C99.592,56.979,99.599,56.987,99.601,56.989z"/>
			<path fill="#B34A9A" d="M99.592,56.987c0,0,0.002,0,0.004,0.002h0.007c4.834-5.275,7.752-12.475,7.649-20.346
				c-0.096,0.102-0.191,0.203-0.305,0.314C101.947,42.606,99.502,49.817,99.592,56.987z"/>
			<path fill="#943F96" d="M90.19,35.792c0.002,0.146-0.002,0.283,0.002,0.42c0.26,8.332,3.873,15.713,9.4,20.775
				c-0.129-7.5-3.023-14.945-8.633-20.479C90.712,36.263,90.444,36.034,90.19,35.792z"/>
			<path fill="#344199" d="M78.987,49.302c5.789,5.699,13.29,8.234,20.605,7.689c0-0.004,0-0.012,0-0.016
				c-5.13-5.199-12.172-8.299-19.839-8.031c-0.344,0.014-0.702,0.041-1.043,0.066C78.802,49.106,78.89,49.206,78.987,49.302z"/>
		</g>
	</g>
</g>
</svg>
